<svg width="218" height="65" viewBox="0 0 218 65" fill="none" xmlns="http://www.w3.org/2000/svg">
<path fill-rule="evenodd" clip-rule="evenodd" d="M111 0H0V65H99V53H111V0Z" fill="#EE1B2F"/>
<path d="M35.3662 32.5088L35.4517 34.5596C36.8075 32.9645 38.6361 32.167 40.9375 32.167C43.5238 32.167 45.284 33.1582 46.2183 35.1406C46.8335 34.252 47.631 33.5342 48.6108 32.9873C49.6021 32.4404 50.7699 32.167 52.1143 32.167C56.1702 32.167 58.2324 34.3146 58.3008 38.6099V51H55.1392V38.7979C55.1392 37.4762 54.8372 36.4907 54.2334 35.8413C53.6296 35.1805 52.6156 34.8501 51.1914 34.8501C50.0179 34.8501 49.0438 35.2033 48.269 35.9097C47.4943 36.6047 47.0443 37.5446 46.9189 38.7295V51H43.7402V38.8833C43.7402 36.1945 42.4243 34.8501 39.7925 34.8501C37.7189 34.8501 36.3005 35.7331 35.5371 37.499V51H32.3755V32.5088H35.3662ZM69.187 46.7104L73.7671 32.5088H76.9971L70.3662 51H67.9565L61.2573 32.5088H64.4873L69.187 46.7104ZM95.6592 41.9595C95.6592 44.7736 95.0155 47.0409 93.728 48.7612C92.4406 50.4816 90.6974 51.3418 88.4985 51.3418C86.2541 51.3418 84.4881 50.6297 83.2007 49.2056V58.1094H80.0391V32.5088H82.9272L83.0811 34.5596C84.3685 32.9645 86.1572 32.167 88.4473 32.167C90.6689 32.167 92.4235 33.0044 93.7109 34.6792C95.0098 36.354 95.6592 38.6839 95.6592 41.6689V41.9595ZM92.4976 41.6006C92.4976 39.5156 92.0532 37.8693 91.1646 36.6616C90.2759 35.4539 89.0568 34.8501 87.5073 34.8501C85.5933 34.8501 84.1577 35.6989 83.2007 37.3965V46.2319C84.1463 47.9181 85.5933 48.7612 87.5415 48.7612C89.0568 48.7612 90.2588 48.1631 91.1475 46.9668C92.0475 45.7591 92.4976 43.9704 92.4976 41.6006Z" fill="white"/>
<path d="M120.248 30.5V53H118.505V30.5H120.248ZM131.161 53.293C130.126 53.293 129.174 53.1025 128.305 52.7217C127.445 52.3408 126.693 51.8037 126.049 51.1104C125.414 50.417 124.921 49.5967 124.569 48.6494C124.228 47.6924 124.057 46.6475 124.057 45.5146V44.8848C124.057 43.6641 124.237 42.5605 124.599 41.5742C124.96 40.5879 125.458 39.7432 126.093 39.04C126.728 38.3369 127.45 37.7998 128.261 37.4287C129.081 37.0479 129.94 36.8574 130.839 36.8574C131.845 36.8574 132.738 37.0381 133.52 37.3994C134.301 37.751 134.955 38.2539 135.482 38.9082C136.02 39.5527 136.425 40.3193 136.698 41.208C136.972 42.0869 137.108 43.0586 137.108 44.123V45.1924H125.111V43.6982H135.365V43.4932C135.346 42.6045 135.165 41.7744 134.823 41.0029C134.491 40.2217 133.993 39.5869 133.329 39.0986C132.665 38.6104 131.835 38.3662 130.839 38.3662C130.097 38.3662 129.413 38.5225 128.788 38.835C128.173 39.1475 127.641 39.5967 127.191 40.1826C126.752 40.7588 126.41 41.4473 126.166 42.248C125.932 43.0391 125.814 43.918 125.814 44.8848V45.5146C125.814 46.3936 125.941 47.2139 126.195 47.9756C126.459 48.7275 126.83 49.3916 127.309 49.9678C127.797 50.5439 128.373 50.9932 129.037 51.3154C129.701 51.6377 130.434 51.7988 131.234 51.7988C132.172 51.7988 133.002 51.6279 133.725 51.2861C134.447 50.9346 135.097 50.3828 135.673 49.6309L136.771 50.4805C136.43 50.9883 136 51.457 135.482 51.8867C134.975 52.3164 134.364 52.6582 133.651 52.9121C132.938 53.166 132.108 53.293 131.161 53.293ZM150.058 48.957C150.058 48.5273 149.95 48.1025 149.735 47.6826C149.521 47.2627 149.105 46.877 148.49 46.5254C147.885 46.1738 146.991 45.876 145.81 45.6318C144.931 45.4365 144.145 45.2168 143.451 44.9727C142.768 44.7285 142.191 44.4355 141.723 44.0938C141.254 43.752 140.897 43.3418 140.653 42.8633C140.409 42.3848 140.287 41.8184 140.287 41.1641C140.287 40.5781 140.414 40.0264 140.668 39.5088C140.932 38.9814 141.303 38.5225 141.781 38.1318C142.27 37.7314 142.855 37.4189 143.539 37.1943C144.232 36.9697 145.009 36.8574 145.868 36.8574C147.089 36.8574 148.134 37.0674 149.003 37.4873C149.882 37.8975 150.551 38.459 151.01 39.1719C151.479 39.8848 151.713 40.6904 151.713 41.5889H149.97C149.97 41.042 149.809 40.5244 149.486 40.0361C149.174 39.5479 148.71 39.1475 148.095 38.835C147.489 38.5225 146.747 38.3662 145.868 38.3662C144.96 38.3662 144.223 38.5029 143.656 38.7764C143.09 39.0498 142.675 39.3965 142.411 39.8164C142.157 40.2363 142.03 40.6709 142.03 41.1201C142.03 41.4717 142.084 41.7939 142.191 42.0869C142.309 42.3701 142.514 42.6338 142.807 42.8779C143.109 43.1221 143.539 43.3516 144.096 43.5664C144.652 43.7812 145.375 43.9912 146.264 44.1963C147.543 44.4795 148.588 44.8262 149.398 45.2363C150.219 45.6367 150.824 46.1348 151.215 46.7305C151.605 47.3164 151.801 48.0293 151.801 48.8691C151.801 49.5234 151.664 50.124 151.391 50.6709C151.117 51.208 150.722 51.6719 150.204 52.0625C149.696 52.4531 149.081 52.7559 148.358 52.9707C147.646 53.1855 146.845 53.293 145.956 53.293C144.618 53.293 143.485 53.0732 142.558 52.6338C141.64 52.1846 140.941 51.5986 140.463 50.876C139.994 50.1436 139.76 49.3672 139.76 48.5469H141.503C141.562 49.3672 141.82 50.0166 142.279 50.4951C142.738 50.9639 143.3 51.2959 143.964 51.4912C144.638 51.6865 145.302 51.7842 145.956 51.7842C146.854 51.7842 147.606 51.6523 148.212 51.3887C148.817 51.125 149.276 50.7783 149.589 50.3486C149.901 49.9189 150.058 49.4551 150.058 48.957ZM165.263 48.957C165.263 48.5273 165.155 48.1025 164.94 47.6826C164.726 47.2627 164.311 46.877 163.695 46.5254C163.09 46.1738 162.196 45.876 161.015 45.6318C160.136 45.4365 159.35 45.2168 158.656 44.9727C157.973 44.7285 157.396 44.4355 156.928 44.0938C156.459 43.752 156.103 43.3418 155.858 42.8633C155.614 42.3848 155.492 41.8184 155.492 41.1641C155.492 40.5781 155.619 40.0264 155.873 39.5088C156.137 38.9814 156.508 38.5225 156.986 38.1318C157.475 37.7314 158.061 37.4189 158.744 37.1943C159.438 36.9697 160.214 36.8574 161.073 36.8574C162.294 36.8574 163.339 37.0674 164.208 37.4873C165.087 37.8975 165.756 38.459 166.215 39.1719C166.684 39.8848 166.918 40.6904 166.918 41.5889H165.175C165.175 41.042 165.014 40.5244 164.691 40.0361C164.379 39.5479 163.915 39.1475 163.3 38.835C162.694 38.5225 161.952 38.3662 161.073 38.3662C160.165 38.3662 159.428 38.5029 158.861 38.7764C158.295 39.0498 157.88 39.3965 157.616 39.8164C157.362 40.2363 157.235 40.6709 157.235 41.1201C157.235 41.4717 157.289 41.7939 157.396 42.0869C157.514 42.3701 157.719 42.6338 158.012 42.8779C158.314 43.1221 158.744 43.3516 159.301 43.5664C159.857 43.7812 160.58 43.9912 161.469 44.1963C162.748 44.4795 163.793 44.8262 164.604 45.2363C165.424 45.6367 166.029 46.1348 166.42 46.7305C166.811 47.3164 167.006 48.0293 167.006 48.8691C167.006 49.5234 166.869 50.124 166.596 50.6709C166.322 51.208 165.927 51.6719 165.409 52.0625C164.901 52.4531 164.286 52.7559 163.563 52.9707C162.851 53.1855 162.05 53.293 161.161 53.293C159.823 53.293 158.69 53.0732 157.763 52.6338C156.845 52.1846 156.146 51.5986 155.668 50.876C155.199 50.1436 154.965 49.3672 154.965 48.5469H156.708C156.767 49.3672 157.025 50.0166 157.484 50.4951C157.943 50.9639 158.505 51.2959 159.169 51.4912C159.843 51.6865 160.507 51.7842 161.161 51.7842C162.06 51.7842 162.812 51.6523 163.417 51.3887C164.022 51.125 164.481 50.7783 164.794 50.3486C165.106 49.9189 165.263 49.4551 165.263 48.957ZM170.009 45.3242V44.8408C170.009 43.6885 170.175 42.624 170.507 41.6475C170.839 40.6709 171.312 39.8262 171.928 39.1133C172.553 38.4004 173.3 37.8486 174.169 37.458C175.038 37.0576 176.005 36.8574 177.069 36.8574C178.144 36.8574 179.115 37.0576 179.984 37.458C180.854 37.8486 181.601 38.4004 182.226 39.1133C182.851 39.8262 183.329 40.6709 183.661 41.6475C183.993 42.624 184.159 43.6885 184.159 44.8408V45.3242C184.159 46.4766 183.993 47.541 183.661 48.5176C183.329 49.4844 182.851 50.3242 182.226 51.0371C181.61 51.75 180.868 52.3066 179.999 52.707C179.13 53.0977 178.163 53.293 177.099 53.293C176.024 53.293 175.053 53.0977 174.184 52.707C173.314 52.3066 172.567 51.75 171.942 51.0371C171.317 50.3242 170.839 49.4844 170.507 48.5176C170.175 47.541 170.009 46.4766 170.009 45.3242ZM171.752 44.8408V45.3242C171.752 46.1934 171.869 47.0186 172.104 47.7998C172.338 48.5713 172.68 49.2598 173.129 49.8652C173.578 50.4609 174.135 50.9297 174.799 51.2715C175.463 51.6133 176.229 51.7842 177.099 51.7842C177.958 51.7842 178.715 51.6133 179.369 51.2715C180.033 50.9297 180.59 50.4609 181.039 49.8652C181.488 49.2598 181.825 48.5713 182.05 47.7998C182.284 47.0186 182.401 46.1934 182.401 45.3242V44.8408C182.401 43.9814 182.284 43.166 182.05 42.3945C181.825 41.623 181.483 40.9346 181.024 40.3291C180.575 39.7236 180.019 39.2451 179.354 38.8936C178.69 38.542 177.929 38.3662 177.069 38.3662C176.21 38.3662 175.448 38.542 174.784 38.8936C174.13 39.2451 173.573 39.7236 173.114 40.3291C172.665 40.9346 172.323 41.623 172.089 42.3945C171.864 43.166 171.752 43.9814 171.752 44.8408ZM189.535 40.5342V53H187.792V37.1504H189.462L189.535 40.5342ZM189.14 44.0938L188.363 43.6543C188.422 42.7168 188.612 41.8379 188.935 41.0176C189.257 40.1973 189.691 39.4746 190.238 38.8496C190.795 38.2246 191.444 37.7363 192.187 37.3848C192.938 37.0332 193.769 36.8574 194.677 36.8574C195.468 36.8574 196.176 36.9648 196.801 37.1797C197.426 37.3945 197.958 37.7363 198.397 38.2051C198.837 38.6738 199.169 39.2744 199.394 40.0068C199.628 40.7393 199.745 41.6328 199.745 42.6875V53H197.987V42.6729C197.987 41.5791 197.836 40.7246 197.533 40.1094C197.23 39.4844 196.801 39.04 196.244 38.7764C195.688 38.5127 195.028 38.3809 194.267 38.3809C193.427 38.3809 192.689 38.5664 192.055 38.9375C191.43 39.2988 190.902 39.7725 190.473 40.3584C190.053 40.9346 189.73 41.5547 189.506 42.2188C189.281 42.873 189.159 43.498 189.14 44.0938ZM213.778 48.957C213.778 48.5273 213.671 48.1025 213.456 47.6826C213.241 47.2627 212.826 46.877 212.211 46.5254C211.605 46.1738 210.712 45.876 209.53 45.6318C208.651 45.4365 207.865 45.2168 207.172 44.9727C206.488 44.7285 205.912 44.4355 205.443 44.0938C204.975 43.752 204.618 43.3418 204.374 42.8633C204.13 42.3848 204.008 41.8184 204.008 41.1641C204.008 40.5781 204.135 40.0264 204.389 39.5088C204.652 38.9814 205.023 38.5225 205.502 38.1318C205.99 37.7314 206.576 37.4189 207.26 37.1943C207.953 36.9697 208.729 36.8574 209.589 36.8574C210.81 36.8574 211.854 37.0674 212.724 37.4873C213.603 37.8975 214.271 38.459 214.73 39.1719C215.199 39.8848 215.434 40.6904 215.434 41.5889H213.69C213.69 41.042 213.529 40.5244 213.207 40.0361C212.895 39.5479 212.431 39.1475 211.815 38.835C211.21 38.5225 210.468 38.3662 209.589 38.3662C208.681 38.3662 207.943 38.5029 207.377 38.7764C206.811 39.0498 206.396 39.3965 206.132 39.8164C205.878 40.2363 205.751 40.6709 205.751 41.1201C205.751 41.4717 205.805 41.7939 205.912 42.0869C206.029 42.3701 206.234 42.6338 206.527 42.8779C206.83 43.1221 207.26 43.3516 207.816 43.5664C208.373 43.7812 209.096 43.9912 209.984 44.1963C211.264 44.4795 212.309 44.8262 213.119 45.2363C213.939 45.6367 214.545 46.1348 214.936 46.7305C215.326 47.3164 215.521 48.0293 215.521 48.8691C215.521 49.5234 215.385 50.124 215.111 50.6709C214.838 51.208 214.442 51.6719 213.925 52.0625C213.417 52.4531 212.802 52.7559 212.079 52.9707C211.366 53.1855 210.565 53.293 209.677 53.293C208.339 53.293 207.206 53.0732 206.278 52.6338C205.36 52.1846 204.662 51.5986 204.184 50.876C203.715 50.1436 203.48 49.3672 203.48 48.5469H205.224C205.282 49.3672 205.541 50.0166 206 50.4951C206.459 50.9639 207.021 51.2959 207.685 51.4912C208.358 51.6865 209.022 51.7842 209.677 51.7842C210.575 51.7842 211.327 51.6523 211.933 51.3887C212.538 51.125 212.997 50.7783 213.31 50.3486C213.622 49.9189 213.778 49.4551 213.778 48.957Z" fill="#EE1B2F"/>
</svg>
