<svg width="181" height="65" viewBox="0 0 181 65" fill="none" xmlns="http://www.w3.org/2000/svg">
<rect width="111" height="65" fill="#EE1B2F"/>
<path d="M35.3662 32.5088L35.4517 34.5596C36.8075 32.9645 38.6361 32.167 40.9375 32.167C43.5238 32.167 45.284 33.1582 46.2183 35.1406C46.8335 34.252 47.631 33.5342 48.6108 32.9873C49.6021 32.4404 50.7699 32.167 52.1143 32.167C56.1702 32.167 58.2324 34.3146 58.3008 38.6099V51H55.1392V38.7979C55.1392 37.4762 54.8372 36.4907 54.2334 35.8413C53.6296 35.1805 52.6156 34.8501 51.1914 34.8501C50.0179 34.8501 49.0438 35.2033 48.269 35.9097C47.4943 36.6047 47.0443 37.5446 46.9189 38.7295V51H43.7402V38.8833C43.7402 36.1945 42.4243 34.8501 39.7925 34.8501C37.7189 34.8501 36.3005 35.7331 35.5371 37.499V51H32.3755V32.5088H35.3662ZM69.187 46.7104L73.7671 32.5088H76.9971L70.3662 51H67.9565L61.2573 32.5088H64.4873L69.187 46.7104ZM95.6592 41.9595C95.6592 44.7736 95.0155 47.0409 93.728 48.7612C92.4406 50.4816 90.6974 51.3418 88.4985 51.3418C86.2541 51.3418 84.4881 50.6297 83.2007 49.2056V58.1094H80.0391V32.5088H82.9272L83.0811 34.5596C84.3685 32.9645 86.1572 32.167 88.4473 32.167C90.6689 32.167 92.4235 33.0044 93.7109 34.6792C95.0098 36.354 95.6592 38.6839 95.6592 41.6689V41.9595ZM92.4976 41.6006C92.4976 39.5156 92.0532 37.8693 91.1646 36.6616C90.2759 35.4539 89.0568 34.8501 87.5073 34.8501C85.5933 34.8501 84.1577 35.6989 83.2007 37.3965V46.2319C84.1463 47.9181 85.5933 48.7612 87.5415 48.7612C89.0568 48.7612 90.2588 48.1631 91.1475 46.9668C92.0475 45.7591 92.4976 43.9704 92.4976 41.6006Z" fill="white"/>
<path d="M124.145 51.7842C124.887 51.7842 125.58 51.6475 126.225 51.374C126.879 51.0908 127.416 50.6758 127.836 50.1289C128.266 49.5723 128.51 48.8936 128.568 48.0928H130.238C130.189 49.0986 129.882 49.9971 129.315 50.7881C128.759 51.5693 128.026 52.1846 127.118 52.6338C126.22 53.0732 125.229 53.293 124.145 53.293C123.041 53.293 122.064 53.0928 121.215 52.6924C120.375 52.292 119.672 51.7354 119.105 51.0225C118.539 50.2998 118.109 49.46 117.816 48.5029C117.533 47.5361 117.392 46.4961 117.392 45.3828V44.7676C117.392 43.6543 117.533 42.6191 117.816 41.6621C118.109 40.6953 118.539 39.8555 119.105 39.1426C119.672 38.4199 120.375 37.8584 121.215 37.458C122.055 37.0576 123.026 36.8574 124.13 36.8574C125.263 36.8574 126.278 37.0869 127.177 37.5459C128.085 38.0049 128.808 38.6543 129.345 39.4941C129.892 40.334 130.189 41.3301 130.238 42.4824H128.568C128.52 41.6328 128.295 40.9004 127.895 40.2852C127.494 39.6699 126.967 39.1963 126.312 38.8643C125.658 38.5322 124.931 38.3662 124.13 38.3662C123.231 38.3662 122.465 38.542 121.83 38.8936C121.195 39.2354 120.678 39.709 120.277 40.3145C119.887 40.9102 119.599 41.5938 119.413 42.3652C119.228 43.127 119.135 43.9277 119.135 44.7676V45.3828C119.135 46.2324 119.223 47.043 119.398 47.8145C119.584 48.5762 119.872 49.2549 120.263 49.8506C120.663 50.4463 121.181 50.9199 121.815 51.2715C122.46 51.6133 123.236 51.7842 124.145 51.7842ZM132.802 45.3242V44.8408C132.802 43.6885 132.968 42.624 133.3 41.6475C133.632 40.6709 134.105 39.8262 134.721 39.1133C135.346 38.4004 136.093 37.8486 136.962 37.458C137.831 37.0576 138.798 36.8574 139.862 36.8574C140.937 36.8574 141.908 37.0576 142.777 37.458C143.646 37.8486 144.394 38.4004 145.019 39.1133C145.644 39.8262 146.122 40.6709 146.454 41.6475C146.786 42.624 146.952 43.6885 146.952 44.8408V45.3242C146.952 46.4766 146.786 47.541 146.454 48.5176C146.122 49.4844 145.644 50.3242 145.019 51.0371C144.403 51.75 143.661 52.3066 142.792 52.707C141.923 53.0977 140.956 53.293 139.892 53.293C138.817 53.293 137.846 53.0977 136.977 52.707C136.107 52.3066 135.36 51.75 134.735 51.0371C134.11 50.3242 133.632 49.4844 133.3 48.5176C132.968 47.541 132.802 46.4766 132.802 45.3242ZM134.545 44.8408V45.3242C134.545 46.1934 134.662 47.0186 134.896 47.7998C135.131 48.5713 135.473 49.2598 135.922 49.8652C136.371 50.4609 136.928 50.9297 137.592 51.2715C138.256 51.6133 139.022 51.7842 139.892 51.7842C140.751 51.7842 141.508 51.6133 142.162 51.2715C142.826 50.9297 143.383 50.4609 143.832 49.8652C144.281 49.2598 144.618 48.5713 144.843 47.7998C145.077 47.0186 145.194 46.1934 145.194 45.3242V44.8408C145.194 43.9814 145.077 43.166 144.843 42.3945C144.618 41.623 144.276 40.9346 143.817 40.3291C143.368 39.7236 142.812 39.2451 142.147 38.8936C141.483 38.542 140.722 38.3662 139.862 38.3662C139.003 38.3662 138.241 38.542 137.577 38.8936C136.923 39.2451 136.366 39.7236 135.907 40.3291C135.458 40.9346 135.116 41.623 134.882 42.3945C134.657 43.166 134.545 43.9814 134.545 44.8408ZM160.883 49.9238V30.5H162.641V53H161L160.883 49.9238ZM149.882 45.2363V44.9287C149.882 43.6982 150.023 42.5898 150.307 41.6035C150.59 40.6074 150.995 39.7578 151.522 39.0547C152.06 38.3418 152.704 37.7998 153.456 37.4287C154.208 37.0479 155.058 36.8574 156.005 36.8574C156.933 36.8574 157.753 37.0088 158.466 37.3115C159.179 37.6143 159.789 38.0488 160.297 38.6152C160.814 39.1816 161.229 39.8555 161.542 40.6367C161.864 41.418 162.099 42.2871 162.245 43.2441V47.1553C162.128 48.0537 161.913 48.8789 161.601 49.6309C161.288 50.373 160.873 51.0225 160.355 51.5791C159.838 52.126 159.213 52.5508 158.48 52.8535C157.758 53.1465 156.923 53.293 155.976 53.293C155.038 53.293 154.193 53.0977 153.441 52.707C152.689 52.3164 152.05 51.7646 151.522 51.0518C150.995 50.3291 150.59 49.4746 150.307 48.4883C150.023 47.502 149.882 46.418 149.882 45.2363ZM151.64 44.9287V45.2363C151.64 46.1641 151.732 47.0234 151.918 47.8145C152.104 48.6055 152.387 49.2939 152.768 49.8799C153.148 50.4658 153.632 50.9248 154.218 51.2568C154.804 51.5889 155.497 51.7549 156.298 51.7549C157.304 51.7549 158.148 51.5645 158.832 51.1836C159.516 50.793 160.062 50.2803 160.473 49.6455C160.883 49.001 161.181 48.2979 161.366 47.5361V42.9805C161.249 42.4629 161.078 41.9355 160.854 41.3984C160.629 40.8613 160.321 40.3682 159.931 39.9189C159.55 39.46 159.062 39.0938 158.466 38.8203C157.88 38.5371 157.167 38.3955 156.327 38.3955C155.517 38.3955 154.818 38.5615 154.232 38.8936C153.646 39.2256 153.158 39.6895 152.768 40.2852C152.387 40.8711 152.104 41.5596 151.918 42.3506C151.732 43.1416 151.64 44.001 151.64 44.9287ZM173.378 53.293C172.343 53.293 171.391 53.1025 170.521 52.7217C169.662 52.3408 168.91 51.8037 168.266 51.1104C167.631 50.417 167.138 49.5967 166.786 48.6494C166.444 47.6924 166.273 46.6475 166.273 45.5146V44.8848C166.273 43.6641 166.454 42.5605 166.815 41.5742C167.177 40.5879 167.675 39.7432 168.31 39.04C168.944 38.3369 169.667 37.7998 170.478 37.4287C171.298 37.0479 172.157 36.8574 173.056 36.8574C174.062 36.8574 174.955 37.0381 175.736 37.3994C176.518 37.751 177.172 38.2539 177.699 38.9082C178.236 39.5527 178.642 40.3193 178.915 41.208C179.188 42.0869 179.325 43.0586 179.325 44.123V45.1924H167.328V43.6982H177.582V43.4932C177.562 42.6045 177.382 41.7744 177.04 41.0029C176.708 40.2217 176.21 39.5869 175.546 39.0986C174.882 38.6104 174.052 38.3662 173.056 38.3662C172.313 38.3662 171.63 38.5225 171.005 38.835C170.39 39.1475 169.857 39.5967 169.408 40.1826C168.969 40.7588 168.627 41.4473 168.383 42.248C168.148 43.0391 168.031 43.918 168.031 44.8848V45.5146C168.031 46.3936 168.158 47.2139 168.412 47.9756C168.676 48.7275 169.047 49.3916 169.525 49.9678C170.014 50.5439 170.59 50.9932 171.254 51.3154C171.918 51.6377 172.65 51.7988 173.451 51.7988C174.389 51.7988 175.219 51.6279 175.941 51.2861C176.664 50.9346 177.313 50.3828 177.89 49.6309L178.988 50.4805C178.646 50.9883 178.217 51.457 177.699 51.8867C177.191 52.3164 176.581 52.6582 175.868 52.9121C175.155 53.166 174.325 53.293 173.378 53.293Z" fill="#EE1B2F"/>
<rect x="99" y="53" width="12" height="12" fill="white"/>
</svg>
